<svg width="29" height="24" viewBox="0 0 29 24" fill="none" xmlns="http://www.w3.org/2000/svg">
<path d="M1.39907 11.2085C4.20465 9.66314 7.33645 8.37334 10.2626 7.07694C15.2968 4.95354 20.351 2.86694 25.4562 0.924339C26.4495 0.593339 28.2342 0.269639 28.4092 1.74164C28.3134 3.82524 27.9192 5.89664 27.6488 7.96804C26.9625 12.5232 26.1693 17.0628 25.3958 21.603C25.1293 23.1153 23.2348 23.8982 22.0226 22.9304C19.1094 20.9626 16.1738 19.014 13.2978 17.0006C12.3557 16.0433 13.2293 14.6686 14.0707 13.985C16.4701 11.6204 19.0147 9.61144 21.2887 7.12464C21.9021 5.64334 20.0897 6.89174 19.4919 7.27424C16.2071 9.53784 13.0027 11.9396 9.53955 13.929C7.77055 14.9028 5.70875 14.0706 3.94055 13.5272C2.35513 12.8708 0.0319068 12.2095 1.39891 11.2086L1.39907 11.2085Z" fill="#1E96C8"/>
</svg>
