<svg width="20" height="20" viewBox="0 0 32 20" fill="none" xmlns="http://www.w3.org/2000/svg">
<path fill-rule="evenodd" clip-rule="evenodd" d="M31.2322 1.80255C31.4693 1.05735 31.2322 0.515345 30.1821 0.515345H26.693C25.8123 0.515345 25.4058 0.989545 25.1687 1.49775C25.1687 1.49775 23.3733 5.83365 20.8666 8.64515C20.0536 9.45815 19.681 9.72915 19.2407 9.72915C19.0035 9.72915 18.6987 9.45815 18.6987 8.71294V1.76865C18.6987 0.887945 18.4277 0.481445 17.6824 0.481445H12.1948C11.6528 0.481445 11.3141 0.887945 11.3141 1.29445C11.3141 2.14135 12.5674 2.34455 12.7029 4.71575V9.86465C12.7029 10.9825 12.4997 11.1857 12.0593 11.1857C10.8737 11.1857 7.99439 6.81595 6.26679 1.83645C5.92799 0.854045 5.58929 0.481445 4.70859 0.481445H1.18559C0.16938 0.481445 0 0.955745 0 1.46385C0 2.37845 1.18559 6.98535 5.52149 13.0827C8.40089 17.2492 12.4997 19.4849 16.192 19.4849C18.4277 19.4849 18.6987 18.9768 18.6987 18.13V14.9797C18.6987 13.9634 18.9019 13.7941 19.6133 13.7941C20.1214 13.7941 21.036 14.065 23.1023 16.0636C25.4735 18.4348 25.88 19.5188 27.2011 19.5188H30.6902C31.7064 19.5188 32.1807 19.0107 31.9097 18.0283C31.6048 17.046 30.4531 15.6233 28.9626 13.9295C28.1496 12.9811 26.9301 11.931 26.5575 11.4228C26.0494 10.7454 26.1849 10.4744 26.5575 9.86465C26.5237 9.86465 30.7918 3.83505 31.2322 1.80255Z" fill="#4680C2"/>
</svg>
