<svg width="34" height="26" viewBox="0 0 34 26" fill="none" xmlns="http://www.w3.org/2000/svg">
<path d="M33.289 4.70068C32.9029 3.21705 31.7649 2.04875 30.3199 1.65224C27.7013 0.931641 17.2 0.931641 17.2 0.931641C17.2 0.931641 6.69868 0.931641 4.07988 1.65224C2.63492 2.04875 1.49696 3.21705 1.11077 4.70068C0.40918 7.3896 0.40918 13 0.40918 13C0.40918 13 0.40918 18.6103 1.11077 21.2994C1.49696 22.783 2.63492 23.9513 4.07988 24.348C6.69868 25.0684 17.2 25.0684 17.2 25.0684C17.2 25.0684 27.7013 25.0684 30.3199 24.348C31.7649 23.9513 32.9029 22.783 33.289 21.2994C33.9908 18.6103 33.9908 13 33.9908 13C33.9908 13 33.9908 7.3896 33.289 4.70068" fill="#FF0000"/>
<path d="M14.0515 18.7716V8.27734L22.4469 13.5247L14.0515 18.7716Z" fill="white"/>
</svg>
