<svg width="29" height="28" viewBox="0 0 29 28" fill="none" xmlns="http://www.w3.org/2000/svg">
<g clip-path="url(#clip0_492_262)">
<path d="M17.691 16.7C15.491 18.97 15.331 21.8 15.141 28C20.921 28 24.911 27.98 26.971 25.98C28.971 23.92 28.991 19.74 28.991 14.15C22.791 14.35 19.961 14.5 17.691 16.7ZM0.990967 14.15C0.990967 19.74 1.01097 23.92 3.01097 25.98C5.07097 27.98 9.06097 28 14.841 28C14.641 21.8 14.491 18.97 12.291 16.7C10.021 14.5 7.19097 14.34 0.990967 14.15ZM14.841 0C9.07097 0 5.07097 0.02 3.01097 2.02C1.01097 4.08 0.990967 8.26 0.990967 13.85C7.19097 13.65 10.021 13.5 12.291 11.3C14.491 9.03 14.651 6.2 14.841 0ZM17.691 11.3C15.491 9.03 15.331 6.2 15.141 0C20.921 0 24.911 0.02 26.971 2.02C28.971 4.08 28.991 8.26 28.991 13.85C22.791 13.65 19.961 13.5 17.691 11.3Z" fill="#2C3036"/>
<path d="M28.991 14.15V13.85C22.791 13.65 19.961 13.5 17.691 11.3C15.491 9.03 15.331 6.2 15.141 0H14.841C14.641 6.2 14.491 9.03 12.291 11.3C10.021 13.5 7.19097 13.66 0.990967 13.85V14.15C7.19097 14.35 10.021 14.5 12.291 16.7C14.491 18.97 14.651 21.8 14.841 28H15.141C15.341 21.8 15.491 18.97 17.691 16.7C19.961 14.5 22.791 14.34 28.991 14.15Z" fill="white"/>
</g>
<defs>
<clipPath id="clip0_492_262">
<rect width="28" height="28" fill="white" transform="translate(0.990967)"/>
</clipPath>
</defs>
</svg>
